<?xml version="1.0" encoding="utf-8"?>
<!-- Generator: Adobe Illustrator 28.0.0, SVG Export Plug-In . SVG Version: 6.00 Build 0)  -->
<svg version="1.1" id="Capa_1" xmlns="http://www.w3.org/2000/svg" xmlns:xlink="http://www.w3.org/1999/xlink" x="0px" y="0px"
	 viewBox="0 0 210 150" style="enable-background:new 0 0 210 150;" xml:space="preserve">
<style type="text/css">
	.st0{fill:#585E65;}
	.st1{fill:#9FA0A4;}
	.st2{fill:#08161F;}
	.st3{enable-background:new    ;}
	.st4{fill:none;}
	.st5{fill:#E6E6E6;}
	.st6{fill:#C80502;}
	.st7{fill:#EDEDED;}
	.st8{fill:#323232;}
</style>
<path class="st0" d="M38.4,20.5L38.2,19c3.9-0.7,6.2-3.5,6.7-4.8C45.6,12.4,45,11,43,9.3c-1.8-1.5-5.4-3.5-8.2-4.5
	c-3.6-1.3-6-2.1-9.2-1.1c-3.5,1.1-6.5,3.8-8.4,5.9C15,11.9,13.7,14,13.7,14l-1.2-0.8c0.2-0.4,5.5-8.7,12.7-10.9
	c3.6-1.1,6.2-0.3,10.1,1.1c3,1.1,6.7,3.1,8.6,4.7c2.5,2.1,3.3,4.1,2.4,6.5C45.5,16.5,42.8,19.7,38.4,20.5L38.4,20.5z"/>
<path class="st1" d="M192,139.5c-1.3,0-2.6-0.2-4-0.5c-4.5-1.1-25.4-7.7-48.1-15.5c-28.5-9.8-63.1-21.2-64.4-21.6
	c-0.4-0.1-1.6-0.5-2.2-1.8s-0.4-2.9,0.6-4.9c0.2-0.4,2-5.1,2.1-5.4c0-0.1,0.1-0.1,0.1-0.2c0.3-0.8,0.7-1.7-2.7-4.1
	C68.3,81.9,59.6,75.1,59,74.7c-0.4-0.2-4.6-3-9.1-0.7c-3.5,1.8-7.6,4-10,5.3c-1.8,0.9-2,1.1-2.1,1.1h-0.1C36,81.2,34.1,81.6,31,78
	c-4.8-5.6-13.2-16.7-16.5-27.8c-3.5-11.7-5-27.1-5-28.5c0-4.7,1.9-8.8,5.4-11.5c4-3.2,9.5-4.1,15.5-2.7c7,1.7,11.8,4.8,12.4,8.1
	c0.3,1.5-0.3,2.8-1.6,3.8c-1,0.7-2.2,1.1-3.3,1.5c-0.6,0.2-1.2,0.4-1.5,0.5c-2,1-2.5,1.8-2.1,4.5C36,38.2,40,59.8,40,60v0.1
	c0,0,0.3,2.4,2,3.4c1,0.6,2.4,0.5,4.2-0.2c6.5-2.7,15.6-10.4,17.4-14.6c0.9-2,2.7-11.4,3.3-14.9l0,0c0-0.2,0.8-3.7,3.5-4.8
	c1.7-0.7,3.6-0.3,5.7,1.2c1.2,0.9,2.4,1.6,3.4,2.3c5.9,3.9,8.3,5.5,9.5,12.3c0.5,3,1.4,8.3,2.3,12.9c0.9,5.1,1.7,9.5,1.8,10.1
	c0.7,4.7,4.1,6.8,6.9,7.8c7.5,2.6,15.7,5.1,16.1,5.3c0.3,0.1,7.8,1.9,12.3-3.4c3.2-3.7,6.3-7.5,7.6-9.1c0.4-0.5,0.6-0.8,0.7-0.8
	c1.2-1.4,3.4-4,7.8-0.2c1,0.8,3.4,2.8,6.9,5.5c5.3,4.2,12.4,9.8,20.4,16.3c2.4,2,5.7,4.5,8.2,6.4c1.2,0.9,2.5,1.9,3.8,2.9
	c4.4,3.4,9,6.9,12.3,9.6c9,7.3,12.7,12.5,9.5,22.4C204.5,133.5,199.8,139.5,192,139.5L192,139.5z M53.8,71c3.6,0,6.4,1.9,6.5,2l0,0
	c0.1,0.1,9,7.1,14.3,10.8c4.3,3,4.1,4.9,3.4,6.5c0,0.1-0.1,0.1-0.1,0.2s-2.1,5.4-2.2,5.6c-0.7,1.4-0.9,2.5-0.6,3.2
	c0.2,0.5,0.7,0.7,0.9,0.7c0.3,0.1,36.3,11.9,64.5,21.6c22.6,7.8,43.5,14.3,47.9,15.4c1.3,0.3,2.4,0.4,3.5,0.4c7.3,0,10.9-6,11.5-7.8
	c2.6-8.1,0.7-12.4-8.8-20.1c-3.3-2.7-7.9-6.2-12.3-9.6c-1.3-1-2.5-1.9-3.8-2.9l0,0c-2.5-1.9-5.8-4.4-8.2-6.4
	c-8-6.5-15.2-12.1-20.4-16.3c-3.4-2.7-5.9-4.7-6.9-5.5c-2.9-2.4-3.8-1.3-4.9,0c-0.1,0.1-0.3,0.3-0.7,0.8c-1.3,1.6-4.4,5.4-7.6,9.1
	c-5.5,6.4-14.1,4.1-14.5,4l0,0c-0.1,0-8.4-2.6-16.2-5.3c-3.3-1.2-7.4-3.7-8.3-9.4c-0.1-0.6-0.9-5.2-1.8-10.1
	c-0.8-4.6-1.7-9.8-2.3-12.9c-1-5.9-2.8-7-8.6-10.9c-1-0.7-2.1-1.4-3.4-2.3c-1.5-1-2.8-1.4-3.8-1c-1.6,0.6-2.2,3.1-2.3,3.3
	c-0.1,0.8-2.3,12.7-3.4,15.3c-2,4.7-11.5,12.8-18.5,15.7c-2.4,1-4.4,1-6,0.1c-2.4-1.4-2.9-4.5-3-4.9c-0.2-0.9-4-22-5.9-34.1
	c-0.5-3.4,0.3-5.2,3.2-6.6c0.5-0.3,1.2-0.5,1.9-0.7c0.9-0.3,2-0.6,2.7-1.1s0.9-1,0.8-1.7c-0.3-1.5-2.9-4.6-10.9-6.5
	c-5.3-1.3-10.2-0.5-13.7,2.3c-3,2.3-4.6,5.9-4.6,9.9c0,1.3,1.6,16.6,5,27.9c1.4,4.6,5.3,14.2,16.1,27c2.3,2.8,3.1,2.4,4.3,1.9h0.1
	c0.1-0.1,1-0.5,2-1.1c2.5-1.3,6.6-3.5,10.1-5.3C50.6,71.4,52.3,71.1,53.8,71L53.8,71z"/>
<circle class="st2" cx="139.5" cy="59.5" r="3.6"/>
<g class="st3">
	<path class="st1" d="M138.5,60.6h0.8v-2.2l0,0l-0.7,0.2l-0.1-0.6l1-0.3h0.6v2.8h0.7v0.6h-2.2v-0.5H138.5z"/>
</g>
<circle class="st2" cx="121.4" cy="75.1" r="3.6"/>
<g class="st3">
	<path class="st1" d="M120.4,76.1c0-0.7,0.2-1,0.8-1.2l0.4-0.1c0.3-0.1,0.4-0.2,0.4-0.5l0,0c0-0.3-0.2-0.5-0.5-0.5s-0.7,0.1-0.9,0.2
		l-0.1-0.6c0.3-0.1,0.6-0.2,1.1-0.2c0.7,0,1.2,0.3,1.2,1v0.1c0,0.6-0.2,0.8-0.7,1l-0.4,0.1c-0.4,0.1-0.5,0.3-0.5,0.6v0.2h1.6v0.6
		h-2.2v-0.7H120.4z"/>
</g>
<circle class="st2" cx="99.6" cy="68.7" r="3.6"/>
<g class="st3">
	<path class="st1" d="M98.5,70.2l0.1-0.6c0.2,0.1,0.6,0.2,0.9,0.2c0.4,0,0.6-0.1,0.6-0.5l0,0c0-0.4-0.2-0.5-0.6-0.5h-0.4v-0.6h0.3
		c0.4,0,0.6-0.1,0.6-0.4l0,0c0-0.3-0.2-0.4-0.5-0.4s-0.6,0.1-0.8,0.2L98.5,67c0.3-0.1,0.7-0.2,1.1-0.2c0.6,0,1.1,0.2,1.1,0.9v0.1
		c0,0.4-0.2,0.6-0.5,0.7l0,0c0.3,0.1,0.6,0.3,0.6,0.8v0.1c0,0.7-0.5,1-1.3,1C99.1,70.4,98.7,70.3,98.5,70.2z"/>
</g>
<circle class="st2" cx="92.7" cy="37.3" r="3.6"/>
<g class="st3">
	<path class="st1" d="M93,38.3h-1.6v-0.4l1.1-2.3h0.8l-1.1,2.2H93v-1h0.7v1h0.4v0.6h-0.4v0.7H93V38.3z"/>
</g>
<circle class="st2" cx="68.2" cy="23.6" r="3.6"/>
<g class="st3">
	<path class="st1" d="M69.5,24.2L69.5,24.2c0,0.8-0.4,1.1-1.2,1.1c-0.6,0-0.9-0.1-1.2-0.3l0.2-0.6c0.3,0.2,0.6,0.3,0.9,0.3
		c0.4,0,0.6-0.1,0.6-0.5l0,0c0-0.4-0.2-0.5-0.6-0.5c-0.2,0-0.5,0-0.7,0l-0.2-0.2l0.1-1.7h1.9v0.6H68l-0.1,0.7c0.1,0,0.2,0,0.3,0
		C69,23.2,69.5,23.4,69.5,24.2z"/>
</g>
<circle class="st2" cx="57.9" cy="45.2" r="3.5"/>
<g class="st3">
	<path class="st1" d="M59.2,45.7L59.2,45.7c0,0.8-0.4,1.2-1.2,1.2c-1,0-1.2-0.5-1.2-1.6v-0.1c0-1.4,0.6-1.7,1.4-1.7
		c0.3,0,0.7,0.1,0.9,0.1L59,44.2C58.7,44,58.4,44,58.1,44c-0.5,0-0.7,0.1-0.7,0.8c0.2,0,0.4,0,0.6,0C58.7,44.7,59.2,45,59.2,45.7z
		 M58.5,45.8c0-0.4-0.1-0.5-0.5-0.5c-0.2,0-0.3,0-0.5,0c0,0.7,0.1,1,0.5,1C58.3,46.3,58.5,46.2,58.5,45.8L58.5,45.8z"/>
</g>
<circle class="st2" cx="45.4" cy="57.3" r="3.5"/>
<g class="st3">
	<path class="st1" d="M45.9,56.2h-1.6v-0.6h2.4v0.5L45.3,59h-0.8L45.9,56.2z"/>
</g>
<circle class="st2" cx="39.9" cy="26.3" r="3.5"/>
<g class="st3">
	<path class="st1" d="M41.2,27L41.2,27c0,0.7-0.4,1-1.2,1c-0.9,0-1.3-0.3-1.3-1l0,0c0-0.4,0.2-0.7,0.5-0.8c-0.3-0.1-0.4-0.4-0.4-0.7
		l0,0c0-0.6,0.4-0.9,1.2-0.9c0.7,0,1.1,0.3,1.1,0.9l0,0c0,0.3-0.1,0.6-0.4,0.8C41,26.3,41.2,26.6,41.2,27z M40.5,26.9
		c0-0.3-0.1-0.5-0.5-0.5l0,0c-0.3,0-0.5,0.1-0.5,0.5l0,0c0,0.3,0.1,0.5,0.5,0.5C40.3,27.4,40.5,27.3,40.5,26.9L40.5,26.9z
		 M39.5,25.5c0,0.3,0.1,0.4,0.4,0.4l0,0c0.3,0,0.4-0.2,0.4-0.4l0,0c0-0.3-0.1-0.4-0.4-0.4C39.6,25,39.5,25.2,39.5,25.5L39.5,25.5z"
		/>
</g>
<circle class="st2" cx="51.4" cy="14.3" r="3.5"/>
<g class="st3">
	<path class="st1" d="M52.7,13.9v0.7c0,0.9-0.2,1.5-1.3,1.5c-0.4,0-0.8-0.1-1-0.1l0.1-0.6c0.2,0.1,0.6,0.1,0.9,0.1
		c0.4,0,0.6-0.2,0.6-0.7c-0.2,0-0.4,0-0.6,0c-0.8,0-1.2-0.3-1.2-1.1v-0.1c0-0.7,0.4-1.1,1.2-1.1C52.4,12.5,52.7,13,52.7,13.9z
		 M51.5,14.2c0.2,0,0.4,0,0.5,0v-0.1c0-0.8-0.1-1-0.5-1S51,13.3,51,13.6l0,0C51,14.1,51.1,14.2,51.5,14.2z"/>
</g>
<circle class="st2" cx="10.3" cy="6.5" r="3.6"/>
<g class="st3">
	<path class="st1" d="M7.9,7.6h0.8V5.5l0,0L7.9,5.7L7.8,5.1l1-0.3h0.6v2.8h0.7v0.6H7.9V7.6z"/>
	<path class="st1" d="M10.9,7.9c-0.3-0.2-0.4-0.6-0.4-1.4V6.4c0-0.7,0.1-1.1,0.3-1.4c0.2-0.2,0.5-0.3,0.9-0.3c0.5,0,0.8,0.1,1,0.3
		C13,5.3,13,5.7,13,6.4v0.1c0,0.8-0.1,1.1-0.3,1.4c-0.2,0.2-0.5,0.3-0.9,0.3C11.4,8.2,11.1,8.2,10.9,7.9z M12.2,7.5
		c0.1-0.2,0.2-0.5,0.2-1l0,0c0-0.5,0-0.8-0.1-1c-0.1-0.1-0.2-0.1-0.4-0.1s-0.4,0-0.4,0.1c-0.1,0.2-0.1,0.5-0.1,1v0.1
		c0,0.5,0,0.8,0.1,1c0.1,0.1,0.2,0.2,0.4,0.2C12,7.7,12.1,7.6,12.2,7.5z"/>
</g>
<circle class="st2" cx="22.1" cy="42.4" r="3.5"/>
<g class="st3">
	<path class="st1" d="M19.7,43.6h0.8v-2.2l0,0l-0.7,0.2L19.6,41l1-0.3h0.6v2.8h0.7v0.6h-2.2V43.6z"/>
	<path class="st1" d="M22.6,43.6h0.8v-2.2l0,0l-0.7,0.2L22.5,41l1-0.3h0.6v2.8h0.7v0.6h-2.2V43.6z"/>
</g>
<circle class="st2" cx="34.3" cy="86.6" r="3.6"/>
<g class="st3">
	<path class="st1" d="M31.9,87.7h0.8v-2.2l0,0L32,85.8l-0.1-0.6l1-0.3h0.6v2.8h0.7v0.6H32v-0.6H31.9z"/>
	<path class="st1" d="M34.7,87.7c0-0.7,0.2-1,0.8-1.2l0.4-0.1c0.3-0.1,0.4-0.2,0.4-0.5l0,0c0-0.3-0.2-0.5-0.5-0.5s-0.7,0.1-0.9,0.2
		L34.8,85c0.3-0.1,0.6-0.2,1.1-0.2c0.7,0,1.2,0.3,1.2,1v0.1c0,0.6-0.2,0.8-0.7,1L35.9,87c-0.4,0.1-0.5,0.3-0.5,0.6v0.2H37v0.6h-2.2
		L34.7,87.7L34.7,87.7z"/>
</g>
<circle class="st2" cx="53.4" cy="78.9" r="3.6"/>
<g class="st3">
	<path class="st1" d="M51,80h0.8v-2.2l0,0L51.1,78L51,77.4l1-0.3h0.6V80h0.7v0.6H51V80z"/>
	<path class="st1" d="M53.7,80.4l0.1-0.6c0.2,0.1,0.6,0.2,0.9,0.2c0.4,0,0.6-0.1,0.6-0.5l0,0c0-0.4-0.2-0.5-0.6-0.5h-0.4v-0.6h0.3
		c0.4,0,0.6-0.1,0.6-0.4l0,0c0-0.3-0.2-0.4-0.5-0.4s-0.6,0.1-0.8,0.2l-0.2-0.6c0.3-0.1,0.7-0.2,1.1-0.2c0.6,0,1.1,0.2,1.1,0.9V78
		c0,0.4-0.2,0.6-0.5,0.7l0,0c0.3,0.1,0.6,0.3,0.6,0.8v0.1c0,0.7-0.5,1-1.3,1C54.3,80.6,53.9,80.5,53.7,80.4z"/>
</g>
<circle class="st2" cx="69.8" cy="89.9" r="3.6"/>
<g class="st3">
	<path class="st1" d="M67.4,91h0.8v-2.2l0,0L67.5,89l-0.1-0.6l1-0.3H69V91h0.7v0.6h-2.2V91H67.4z"/>
	<path class="st1" d="M71.5,90.9h-1.6v-0.4l1.1-2.3h0.8l-1.1,2.2h0.8v-1h0.7v1h0.4V91h-0.4v0.7h-0.7C71.5,91.7,71.5,90.9,71.5,90.9z
		"/>
</g>
<circle class="st2" cx="82.1" cy="95.6" r="3.6"/>
<g class="st3">
	<path class="st1" d="M79.6,96.8h0.8v-2.2l0,0l-0.7,0.2l-0.1-0.6l1-0.3h0.6v2.8h0.7v0.6h-2.2v-0.5H79.6z"/>
	<path class="st1" d="M84.7,96.2L84.7,96.2c0,0.8-0.4,1.1-1.2,1.1c-0.6,0-0.9-0.1-1.2-0.3l0.2-0.6c0.3,0.2,0.6,0.3,0.9,0.3
		c0.4,0,0.6-0.1,0.6-0.5l0,0c0-0.4-0.2-0.5-0.6-0.5c-0.2,0-0.5,0-0.7,0l-0.2-0.2l0.1-1.7h1.9v0.6h-1.3l-0.1,0.7c0.1,0,0.2,0,0.3,0
		C84.3,95.2,84.7,95.4,84.7,96.2z"/>
</g>
<circle class="st2" cx="195" cy="145" r="3.6"/>
<g class="st3">
	<path class="st1" d="M192.6,146.2h0.8V144l0,0l-0.7,0.2l-0.1-0.6l1-0.3h0.6v2.8h0.7v0.6h-2.2v-0.5H192.6z"/>
	<path class="st1" d="M197.8,145.6L197.8,145.6c0,0.8-0.4,1.2-1.2,1.2c-1,0-1.2-0.5-1.2-1.6V145c0-1.4,0.6-1.7,1.4-1.7
		c0.3,0,0.7,0.1,0.9,0.1l-0.1,0.6c-0.2-0.1-0.4-0.1-0.7-0.1c-0.5,0-0.7,0.1-0.7,0.8c0.2,0,0.4,0,0.6,0
		C197.3,144.6,197.8,144.8,197.8,145.6z M197,145.7c0-0.4-0.1-0.5-0.5-0.5c-0.2,0-0.3,0-0.5,0c0,0.7,0.1,1,0.5,1S197,146,197,145.7
		L197,145.7z"/>
</g>
<circle class="st2" cx="205.4" cy="108.6" r="3.6"/>
<g class="st3">
	<path class="st1" d="M203,109.8h0.8v-2.2l0,0l-0.7,0.2l-0.1-0.6l1-0.3h0.6v2.8h0.7v0.6H203V109.8z"/>
	<path class="st1" d="M207.4,107.5h-1.6v-0.6h2.4v0.5l-1.3,2.9H206L207.4,107.5z"/>
</g>
<line class="st4" x1="182.6" y1="92.2" x2="177.1" y2="99.1"/>
<rect x="175.5" y="95.3" transform="matrix(0.6222 -0.7828 0.7828 0.6222 -6.8986 176.9479)" class="st5" width="8.8" height="0.7"/>
<path class="st6" d="M190.2,87.1h-8.7l0,0V95h8.7V87.1z"/>
<g class="st3">
	<path class="st7" d="M183.1,89.5c0-0.6,0.3-0.9,0.9-0.9h2.1v0.8h-1.8c-0.1,0-0.2,0.1-0.2,0.2v0.9h1.9v0.8h-1.9v2h-1V89.5z"/>
	<path class="st7" d="M187,92.7v-4.1h1v3.9c0,0.1,0,0.1,0.1,0.1h1.5v0.8h-1.8C187.2,93.4,187,93.2,187,92.7z"/>
</g>
<rect x="67.6" y="41.5" transform="matrix(0.239 -0.971 0.971 0.239 5.8013 101.8822)" class="st7" width="0.7" height="11.5"/>
<path class="st6" d="M80.1,45h-8.7l0,0v8h8.7V45z"/>
<g class="st3">
	<path class="st7" d="M73.4,46.3h1v1h-1V46.3z M73.4,47.7h1v3.6h-1V47.7z"/>
	<path class="st7" d="M75.6,50.6h1.1v-3.1l0,0l-1,0.3L75.5,47l1.4-0.4h0.9v4h1v0.8h-3.1v-0.8H75.6z"/>
</g>
<rect x="69.5" y="104.5" transform="matrix(0.3142 -0.9494 0.9494 0.3142 -47.4985 144.0297)" class="st7" width="12.8" height="0.7"/>
<path class="st6" d="M78.3,105.1h-8.7l0,0v7.9h8.7V105.1z"/>
<g class="st3">
	<path class="st7" d="M71.6,106.4h1v1h-1V106.4z M71.6,107.8h1v3.6h-1V107.8z"/>
	<path class="st7" d="M73.5,111.2l0.1-0.8c0.3,0.2,0.8,0.3,1.3,0.3c0.6,0,0.9-0.2,0.9-0.7l0,0c0-0.5-0.3-0.7-0.8-0.7h-0.6v-0.8h0.4
		c0.6,0,0.8-0.1,0.8-0.6v-0.1c0-0.4-0.3-0.6-0.7-0.6c-0.5,0-0.9,0.1-1.2,0.3l-0.2-0.8c0.4-0.2,0.9-0.3,1.6-0.3
		c0.9,0,1.6,0.3,1.6,1.2v0.1c0,0.5-0.2,0.9-0.7,1l0,0c0.5,0.1,0.8,0.5,0.8,1.1v0.1c0,1-0.6,1.4-1.8,1.4
		C74.4,111.5,73.9,111.4,73.5,111.2z"/>
</g>
<rect x="5.1" y="44.7" transform="matrix(0.9787 -0.2054 0.2054 0.9787 -9.013 3.262)" class="st7" width="12.2" height="0.7"/>
<path class="st6" d="M9.7,42.3H1l0,0v7.9h8.7V42.3z"/>
<g class="st3">
	<path class="st7" d="M3,43.6h1v1H3V43.6z M3,45h1v3.6H3V45z"/>
	<path class="st7" d="M5.1,47.8c0-1,0.3-1.4,1.1-1.7L6.7,46c0.4-0.1,0.6-0.2,0.6-0.7l0,0c0-0.4-0.3-0.6-0.8-0.6s-1,0.1-1.2,0.3
		l-0.2-0.8C5.5,44,6,43.9,6.7,43.9c0.9,0,1.6,0.4,1.6,1.4v0.1c0,0.8-0.3,1.2-1,1.4L6.7,47C6.2,47,6,47.2,6,47.6v0.3h2.2v0.8H5.1
		V47.8z"/>
</g>
<rect x="142.3" y="126.2" transform="matrix(0.3644 -0.9312 0.9312 0.3644 -24.3748 217.3185)" class="st7" width="9.4" height="0.7"/>
<path class="st7" d="M148.5,128.5h-6.1l0,0v6.6h6.1V128.5L148.5,128.5z"/>
<g class="st3">
	<path class="st8" d="M144.3,133.6l0.2-0.7c0.3,0.1,0.7,0.2,1,0.2c0.5,0,0.7-0.1,0.7-0.5l0,0c0-0.3-0.1-0.4-0.5-0.5l-0.4-0.1
		c-0.7-0.2-1-0.4-1-1.1v-0.1c0-0.9,0.5-1.1,1.4-1.1c0.5,0,0.9,0.1,1.2,0.2l-0.2,0.7c-0.3-0.1-0.7-0.2-1-0.2c-0.4,0-0.6,0-0.6,0.4
		l0,0c0,0.3,0.1,0.4,0.5,0.5l0.5,0.1c0.7,0.1,1,0.4,1,1.1v0.1c0,0.9-0.5,1.2-1.5,1.2C145.1,133.8,144.5,133.7,144.3,133.6z"/>
</g>
</svg>
