<?xml version="1.0" encoding="UTF-8"?>
<svg id="Capa_1" xmlns="http://www.w3.org/2000/svg" version="1.1" viewBox="0 0 210 130">
  <!-- Generator: Adobe Illustrator 29.6.1, SVG Export Plug-In . SVG Version: 2.1.1 Build 9)  -->
  <defs>
    <style>
      .st0 {
        fill: #9e9fa3;
      }
    </style>
  </defs>
  <path class="st0" d="M91.49,120.61h-.03c-2.33-.02-3.36-2.19-3.91-3.36-2.1-4.45-10.22-14.94-12.94-18.26-1.44-1.76-6.25-8.31-10.21-14.18-3.64-5.4-6.59-10.47-7.14-11.43-3.45-5.99-8.23-12.45-10.22-14.62l-.22-.24c-1.69-1.84-1.75-2.23-.77-4.71.06-.16.13-.32.2-.5.58-1.48,1.16-2.85,1.59-3.85.35-.81.65-1.52.72-1.76l.05-.16c.2-.66.23-.75-.98-1.94-1.07-1.06-4.7-4.87-8.55-8.9-3.84-4.03-7.81-8.19-8.63-8.98-1.26-1.22-11.04-10.41-16.29-15.35-1.5-1.41-2.6-2.44-2.96-2.79-.53-.5-1.01-.96-1.55-1.62-.68-.83-.85-1.92-.47-2.92.52-1.36,1.95-2.31,3.92-2.61,4.35-.65,17.57-2.63,30.94-1.29,9.77.98,21.5,3.1,30.07,4.65,2.33.42,4.34.78,6.02,1.07,8.31,1.42,17.65,2.75,29.69,2.82,2.17.01,4.05.02,5.69.03,7.81.04,9.91.05,11,.16,1.83.19,4.19,1.47,5.17,3.54.56,1.2.89,3.14-.76,5.6-3.26,4.88-4.52,6.44-7.08,8.78-.95.87-4.48,3.87-9.8,5.82-4.91,1.8-10.12,2.31-15.48,1.52-12.11-1.78-13.38-1.95-16.17-2.32l-.36-.05c-.34-.04-.81-.11-1.35-.2-1.23-.18-2.91-.44-4.39-.58-6.04-.58-9.02,1.98-10.45,4.24-3.93,6.2-1.57,10.25,1.42,15.38.37.63.74,1.27,1.12,1.94,2.67,4.74,4.58,7.88,6.26,10.65.5.81.97,1.59,1.43,2.36,2.01,3.34,4.52,5.15,7.67,5.53,6.14.74,10.09-3.64,11.9-6.32,2.5-3.7,5.26-6.34,8.67-8.3,3.99-2.29,8.75-3.56,15-4,4.03-.28,33.42-1.44,49.21-2.06,4.98-.2,8.59-.34,9.53-.38.4-.02.79-.04,1.19-.06,6.35-.32,12.35-.61,15.69,9.77,2.2,6.86,3.59,11.4,4.42,14.11.42,1.36.69,2.26.87,2.8,1.49,4.52.94,6.66-5.24,10.39-6.5,3.93-10.58,5.58-22.99,9.28-3.94,1.17-9.31,2.75-15.97,4.68h0c-10.49,3.04-20.64,5.95-20.74,5.98l-38.33,11.31c-.49.17-3.76,1.31-5.45,1.31v.02ZM34.44,2.7c-9.53,0-17.8,1.24-21.05,1.72-1.2.18-2.07.68-2.32,1.33-.12.32-.07.64.14.9.42.51.79.88,1.37,1.43.37.35,1.46,1.38,2.96,2.79,5.26,4.94,15.04,14.14,16.31,15.37.85.82,4.66,4.81,8.69,9.04,3.67,3.85,7.46,7.83,8.51,8.86,1.78,1.76,1.93,2.54,1.49,3.98l-.05.15c-.11.35-.38,1-.8,1.97-.45,1.04-1,2.34-1.57,3.79-.07.18-.14.35-.2.51-.28.71-.52,1.33-.5,1.51.02.15.44.61.88,1.08l.22.24c2.05,2.24,6.97,8.87,10.49,14.98.55.95,3.46,5.96,7.07,11.31,4.23,6.27,8.89,12.56,10.1,14.03,2.05,2.5,10.86,13.7,13.21,18.68.87,1.84,1.41,2.19,2.09,2.2,1.14.01,3.86-.86,4.81-1.2l.05-.02,38.37-11.32c.11-.03,10.25-2.93,20.74-5.98,6.66-1.93,12.02-3.51,15.96-4.68,12.2-3.64,16.2-5.25,22.52-9.07,5.84-3.53,5.38-4.94,4.37-8.02-.18-.56-.46-1.47-.88-2.84-.83-2.71-2.21-7.23-4.41-14.08-2.86-8.9-7.39-8.67-13.66-8.36-.4.02-.8.04-1.2.06-.95.04-4.55.18-9.54.38-15.78.62-45.15,1.78-49.15,2.06-5.93.42-10.42,1.61-14.13,3.73-3.14,1.8-5.68,4.24-8,7.68-4.82,7.14-10.73,7.58-13.83,7.2-3.76-.45-6.84-2.64-9.16-6.5-.46-.77-.93-1.54-1.43-2.35-1.69-2.78-3.61-5.94-6.3-10.71-.36-.65-.74-1.29-1.1-1.91-3.07-5.27-5.98-10.24-1.39-17.49,2.45-3.87,6.84-5.71,12.36-5.18,1.53.15,3.24.4,4.49.59.53.08.98.15,1.31.19l.36.05c2.8.37,4.08.53,16.2,2.32,5.02.74,9.89.26,14.48-1.42,4.97-1.82,8.24-4.61,9.13-5.42,2.44-2.23,3.57-3.65,6.76-8.41.9-1.34,1.1-2.56.61-3.61-.69-1.46-2.49-2.28-3.54-2.39-.99-.1-3.27-.11-10.8-.15-1.63,0-3.51-.02-5.69-.03-12.18-.06-21.63-1.41-30.02-2.85-1.69-.29-3.7-.65-6.04-1.08-8.54-1.54-20.23-3.66-29.91-4.63-3.17-.32-6.34-.44-9.39-.44h.01Z"/>
</svg>