<?xml version="1.0" encoding="UTF-8"?>
<!-- Generator: Adobe Illustrator 26.4.1, SVG Export Plug-In . SVG Version: 6.00 Build 0)  -->
<svg version="1.1" id="Capa_1" xmlns="http://www.w3.org/2000/svg" xmlns:xlink="http://www.w3.org/1999/xlink" x="0px" y="0px" viewBox="0 0 236 139.8" style="enable-background:new 0 0 236 139.8;" xml:space="preserve">
<style type="text/css">
	.st0{fill:#9E9FA2;}
	.st1{fill:#C80502;}
	.st2{fill:#FFFFFF;}
	.st3{fill:#171C21;}
	.st4{fill:#00B753;}
	.st5{clip-path:url(#SVGID_00000098919652705224536380000012942433750778908559_);}
	.st6{fill:#1D1D1B;}
	.st7{fill:none;stroke:#939393;stroke-width:0.25;stroke-miterlimit:10;}
</style>
<g>
	<path class="st0" d="M228,95l-0.6-0.1l0,0L228,95c-0.1-1.4-0.2-2.9-0.3-3.9c-0.3-5.1-2.4-10.9-4.1-13.6   c-1.4-2.2-25.3-35.2-26.9-37.1c-1.8-2.1-4.7-3.5-7.1-4.4L107,3.4c-0.2-0.1-4.1-1.6-11-3C94.6,0.1,93.2,0,92,0   c-8.3-0.2-12.2,7.4-7.2,14.3c1.3,1.7,8.1,8.1,10.3,9.1c0.9,0.4,6.8,2,19.2,5.1c9.2,2.3,19.7,5,21.8,5.8c4.3,1.6,13.4,5.6,16.1,7.1   c4.7,2.5,3,7.7-1.6,9.2c-2.7,0.9-25.4,6.2-36.4,8.6c-23.5,5.5-51.2,4.7-75.3,6c-3.6,0-3.6-1-4.5-2.7c-1.1-2.1-4.9-10.4-5.9-12.2   c-1.4-2.5-3.8-2.8-5.9-2.7c-2.2,0.1-8.9,1-10.5,1.3c-2,0.4-3.5,1.6-4.1,3.2c-1.2,4.7,2.3,7.5,5.8,11.5c4.7,5.4,12.5,14.3,16.5,18.6   c3.2,3.3,6.8,5,10.7,5c1.7,0,3.1-0.3,4-0.5c1.2-0.3,6.4-1.8,24.5-7.3l1.7-0.5c0.6-0.2,1.2-0.3,1.6-0.3c1.2-0.1,1.8,1.1,2.6,1.8   c2.5,2.5,5.9,6.7,8.8,9.1c2.8,2.3,6.4,2.8,10,1.5c0.9-0.3,15.7-6.1,38.3-14.8c24.8-9.6,52.9-20.5,54.4-21.1   c1.6-0.7,3.5,0.4,4.5,1.5s16.4,29.1,19,34.1c1.6,3.2,1.6,4.1,1.2,6.1c-0.4,1.9-14.3,20.6-15.9,23.5c-1,2.1-2.9,4.9,0.1,8.8   c1.2,1.5,2.8,2.2,4.7,2.2c3.9-0.2,5.7-1.9,8.4-3.4c6.9-4.2,15-9.1,16.5-10.3c2.3-1.9,3.3-4.8,3.5-6.9C229,109,228.5,101.3,228,95z    M214.6,85.9c-1.6-3.1-18.5-32.5-19.2-33.8c-1.1-1.7-4.2-3-7.3-3c-1.2,0-2.4,0.2-3.4,0.6c-1.2,0.4-20.4,7.9-38.9,15l-2.5,1   C117.5,75.4,94.7,85,90.5,85.6c-1.2,0-2.4-0.5-3.7-1.6c-3-2.5-5.4-5.7-7.7-8.3c-3.5-5-8.8-2.6-14.7-0.8c-9.3,2.6-18.2,6-23.1,6.3   c-2.9,0-5.3-1.2-7.6-3.8c-1.8-2-4.1-4.6-6.4-7.2c-3.4-3.9-8.9-10-10.3-11.7c-0.9-1-2.6-3.2-2.7-3.6c1.8-0.9,5.4-1.2,7.8-1.3   c0.9,0,0.9,0,1.7,1.4c1,1.8,4.9,9.8,5.9,11.7c1.8,3.2,4.6,4.8,8.5,4.8c4.4,0,50.5-2.4,54.6-2.7c12-0.4,50.5-10,60.1-12.8   c8.4-3,12.1-13.4,1.8-19.5c-2.8-1.6-12.4-6.1-16.4-7.5c-2.9-1.2-37.2-9.2-41.1-10.6c-1.4-0.7-5.6-5.1-6.9-6.9   c-1.1-1.5-1.4-3.1-0.9-4.1c0.9-1.4,2.7-1.2,4.1-1c5.8,1.1,12.7,3.2,14,3.6c0.6,0.2,75,29.7,77.9,30.8c2.4,0.9,5.6,2.3,6.8,3.8   c1.2,1.4,23.8,32,25.5,34.7c1.3,2.1,3.6,6.7,4,11c0.1,1.5,0.3,3.8,0.6,6.2c0.4,4.6,1.1,11.5,1,12.7c-0.2,2.2-0.9,3.7-2.2,4.7   c-1.4,1.1-10.4,6.5-15.1,9.3c-2.4,1.3-3.5,2.4-5.2,2.8c-0.1,0-0.3,0-0.7-0.4c-0.7-0.8-0.6-1.1,0.4-2.3c0.6-0.7,0.6-0.8,1.4-1.9   c13.6-18.6,15.7-22.7,16-24.2C218.5,95,217.4,91.4,214.6,85.9z"/>
	<g>
		<g>
			<path class="st1" d="M152.6,31.1c-0.2-0.2-0.3-0.5-0.1-0.7l6.1-14.1c0.2-0.2,0.5-0.3,0.7-0.1s0.3,0.5,0.1,0.7L153.3,31     C153.2,31.2,152.8,31.2,152.6,31.1z"/>
			<path class="st1" d="M162.3,18.7h-6.2c-1.6,0-2.8-1.3-2.8-2.8v-4.2c0-1.6,1.3-2.8,2.8-2.8h6.2c1.6,0,2.8,1.3,2.8,2.8v4.2     C165.1,17.4,163.8,18.7,162.3,18.7z"/>
			<g>
				<path class="st2" d="M157.6,14.7v-0.2h1v0.1c0,0.4,0.2,0.6,0.5,0.6s0.5-0.2,0.5-0.4c0-0.3-0.1-0.4-0.5-0.5l-0.4-0.1      c-0.6-0.2-1.2-0.5-1.2-1.3s0.6-1.3,1.5-1.3c1,0,1.5,0.5,1.5,1.4v0.1h-1v-0.2c0-0.4-0.2-0.6-0.5-0.6s-0.4,0.2-0.4,0.4      c0,0.4,0.4,0.5,0.8,0.7h0.1c0.5,0.2,1.2,0.5,1.2,1.3c0,0.7-0.5,1.4-1.6,1.4C158.2,16.1,157.6,15.6,157.6,14.7z"/>
			</g>
		</g>
		<g>
			<g>
				<path class="st1" d="M144.9,89.1h-6.2c-1.6,0-2.8-1.3-2.8-2.8V82c0-1.6,1.3-2.8,2.8-2.8h6.2c1.6,0,2.8,1.3,2.8,2.8v4.2      C147.7,87.8,146.5,89.1,144.9,89.1z"/>
				<g>
					<path class="st2" d="M140.2,83.1V84h1.6v0.8h-1.6v1.6h-1v-3.6c0-0.6,0.3-0.9,0.9-0.9h1.8l-0.1,0.8h-1.3       C140.3,82.8,140.2,82.9,140.2,83.1z"/>
					<path class="st2" d="M142.5,85.4V82h1v3.3c0,0.3,0.1,0.4,0.4,0.4h1.3l-0.1,0.8h-1.4C142.8,86.5,142.5,86.1,142.5,85.4z"/>
				</g>
				<g>
					<polygon class="st1" points="133.8,64.2 134.7,63.9 139.8,79.7 138.9,80.1      "/>
					
						<rect x="126.7" y="65.1" transform="matrix(0.9529 -0.3032 0.3032 0.9529 -13.7305 42.746)" class="st1" width="8.2" height="1"/>
					<path id="Shape_17_" class="st1" d="M126,66.1l1.1-1.2c0.2-0.1,0.4-0.2,0.4,0l0.4,1.6l0.5,1.5c0,0.2-0.1,0.3-0.4,0.4l-1.6-0.4       l-1.6-0.4c-0.2-0.1-0.2-0.3-0.2-0.4L126,66.1z"/>
				</g>
			</g>
			<g>
				<path class="st3" d="M172.9,89.1h-20.1c-1.6,0-2.8-1.3-2.8-2.8V82c0-1.6,1.3-2.8,2.8-2.8h20.1c1.6,0,2.8,1.3,2.8,2.8v4.2      C175.7,87.8,174.4,89.1,172.9,89.1z"/>
				<circle class="st1" cx="155.3" cy="84.2" r="3.5"/>
				<circle class="st4" cx="163.3" cy="84.1" r="3.5"/>
				<g>
					<g>
						<g>
							<g>
								<g>
									<defs>
										<circle id="SVGID_00000136394748778601284540000010403325183640797874_" cx="170.9" cy="84.2" r="3.5"/>
									</defs>
									<clipPath id="SVGID_00000062883008718369413170000000802964887515984802_">
										<use xlink:href="#SVGID_00000136394748778601284540000010403325183640797874_" style="overflow:visible;"/>
									</clipPath>
									<g style="clip-path:url(#SVGID_00000062883008718369413170000000802964887515984802_);">
										<rect x="162.7" y="77.8" class="st2" width="1.8" height="1.8"/>
										<rect x="164.6" y="77.8" class="st6" width="1.8" height="1.8"/>
										<rect x="166.4" y="77.8" class="st2" width="1.8" height="1.8"/>
										<rect x="168.2" y="77.8" class="st6" width="1.8" height="1.8"/>
										<rect x="170" y="77.8" class="st2" width="1.8" height="1.8"/>
										<rect x="171.9" y="77.8" class="st6" width="1.8" height="1.8"/>
										<rect x="173.7" y="77.8" class="st2" width="1.8" height="1.8"/>
										<rect x="175.5" y="77.8" class="st6" width="1.8" height="1.8"/>
										<rect x="162.7" y="79.6" class="st6" width="1.8" height="1.8"/>
										<rect x="164.6" y="79.6" class="st2" width="1.8" height="1.8"/>
										<rect x="166.4" y="79.6" class="st6" width="1.8" height="1.8"/>
										<rect x="168.2" y="79.6" class="st2" width="1.8" height="1.8"/>
										<rect x="170" y="79.6" class="st6" width="1.8" height="1.8"/>
										<rect x="171.9" y="79.6" class="st2" width="1.8" height="1.8"/>
										<rect x="173.7" y="79.6" class="st6" width="1.8" height="1.8"/>
										<rect x="175.5" y="79.6" class="st2" width="1.8" height="1.8"/>
										<rect x="162.7" y="81.4" class="st2" width="1.8" height="1.8"/>
										<rect x="164.6" y="81.4" class="st6" width="1.8" height="1.8"/>
										<rect x="166.4" y="81.4" class="st2" width="1.8" height="1.8"/>
										<rect x="168.2" y="81.4" class="st6" width="1.8" height="1.8"/>
										<rect x="170" y="81.4" class="st2" width="1.8" height="1.8"/>
										<rect x="171.9" y="81.4" class="st6" width="1.8" height="1.8"/>
										<rect x="173.7" y="81.4" class="st2" width="1.8" height="1.8"/>
										<rect x="175.5" y="81.4" class="st6" width="1.8" height="1.8"/>
										<rect x="162.7" y="83.3" class="st6" width="1.8" height="1.8"/>
										<rect x="164.6" y="83.3" class="st2" width="1.8" height="1.8"/>
										<rect x="166.4" y="83.3" class="st6" width="1.8" height="1.8"/>
										<rect x="168.2" y="83.3" class="st2" width="1.8" height="1.8"/>
										<rect x="170" y="83.3" class="st6" width="1.8" height="1.8"/>
										<rect x="171.9" y="83.3" class="st2" width="1.8" height="1.8"/>
										<rect x="173.7" y="83.3" class="st6" width="1.8" height="1.8"/>
										<rect x="175.5" y="83.3" class="st2" width="1.8" height="1.8"/>
										<rect x="162.7" y="85.1" class="st2" width="1.8" height="1.8"/>
										<rect x="164.6" y="85.1" class="st6" width="1.8" height="1.8"/>
										<rect x="166.4" y="85.1" class="st2" width="1.8" height="1.8"/>
										<rect x="168.2" y="85.1" class="st6" width="1.8" height="1.8"/>
										<rect x="170" y="85.1" class="st2" width="1.8" height="1.8"/>
										<rect x="171.9" y="85.1" class="st6" width="1.8" height="1.8"/>
										<rect x="173.7" y="85.1" class="st2" width="1.8" height="1.8"/>
										<rect x="175.5" y="85.1" class="st6" width="1.8" height="1.8"/>
										<rect x="162.7" y="86.9" class="st6" width="1.8" height="1.8"/>
										<rect x="164.6" y="86.9" class="st2" width="1.8" height="1.8"/>
										<rect x="166.4" y="86.9" class="st6" width="1.8" height="1.8"/>
										<rect x="168.2" y="86.9" class="st2" width="1.8" height="1.8"/>
										<rect x="170" y="86.9" class="st6" width="1.8" height="1.8"/>
										<rect x="171.9" y="86.9" class="st2" width="1.8" height="1.8"/>
										<rect x="173.7" y="86.9" class="st6" width="1.8" height="1.8"/>
										<rect x="175.5" y="86.9" class="st2" width="1.8" height="1.8"/>
										<rect x="162.7" y="88.7" class="st2" width="1.8" height="1.8"/>
										<rect x="164.6" y="88.7" class="st6" width="1.8" height="1.8"/>
										<rect x="166.4" y="88.7" class="st2" width="1.8" height="1.8"/>
										<rect x="168.2" y="88.7" class="st6" width="1.8" height="1.8"/>
										<rect x="170" y="88.7" class="st2" width="1.8" height="1.8"/>
										<rect x="171.9" y="88.7" class="st6" width="1.8" height="1.8"/>
										<rect x="173.7" y="88.7" class="st2" width="1.8" height="1.8"/>
										<rect x="175.5" y="88.7" class="st6" width="1.8" height="1.8"/>
										<rect x="162.7" y="90.6" class="st6" width="1.8" height="1.8"/>
										<rect x="164.6" y="90.6" class="st2" width="1.8" height="1.8"/>
										<rect x="166.4" y="90.6" class="st6" width="1.8" height="1.8"/>
										<rect x="168.2" y="90.6" class="st2" width="1.8" height="1.8"/>
										<rect x="170" y="90.6" class="st6" width="1.8" height="1.8"/>
										<rect x="171.9" y="90.6" class="st2" width="1.8" height="1.8"/>
										<rect x="173.7" y="90.6" class="st6" width="1.8" height="1.8"/>
										<rect x="175.5" y="90.6" class="st2" width="1.8" height="1.8"/>
									</g>
								</g>
							</g>
						</g>
					</g>
					<g>
						<circle id="SVGID_1_" class="st7" cx="170.9" cy="84.2" r="3.5"/>
					</g>
				</g>
			</g>
		</g>
		<g>
			<path class="st1" d="M54,53.1h-6.2c-1.6,0-2.8-1.3-2.8-2.8v-4.2c0-1.6,1.3-2.8,2.8-2.8H54c1.6,0,2.8,1.3,2.8,2.8v4.2     C56.9,51.8,55.6,53.1,54,53.1z"/>
			<g>
				<path class="st2" d="M48.8,45.4h1v0.9h-1V45.4z M48.9,46.7h0.9v3.5h-0.9V46.7z"/>
				<path class="st2" d="M53.6,49.4l-0.2,0.8h-2.8v-0.8h1.1v-2.7l-1.1,0.5v-0.8l1.4-0.6h0.7v3.6H53.6z"/>
			</g>
			<path class="st1" d="M23.4,60.9c-0.1-0.3,0.1-0.5,0.4-0.6l24.4-9.4c0.3-0.1,0.5,0.1,0.6,0.4c0.1,0.3-0.1,0.5-0.4,0.6L24,61.2     C23.7,61.3,23.5,61.2,23.4,60.9z"/>
		</g>
		<g>
			<path class="st1" d="M104,43.1h-6.2c-1.6,0-2.8-1.3-2.8-2.8v-4.2c0-1.6,1.3-2.8,2.8-2.8h6.2c1.6,0,2.8,1.3,2.8,2.8v4.2     C106.9,41.8,105.6,43.1,104,43.1z"/>
			<g>
				<path class="st2" d="M98.9,35.4h1v0.9h-1V35.4z M98.9,36.7h0.9v3.5h-0.9V36.7z"/>
				<path class="st2" d="M100.5,39.4c0-0.7,0.3-1.1,0.9-1.4l0.2-0.1c0.7-0.3,0.9-0.5,0.9-0.9c0-0.3-0.2-0.6-0.5-0.6      c-0.4,0-0.6,0.3-0.6,0.8v0.1h-1v-0.1c0-1.1,0.5-1.6,1.6-1.6c0.9,0,1.5,0.5,1.5,1.4c0,0.7-0.3,1.1-1.1,1.5l-0.2,0.1      c-0.6,0.2-0.8,0.4-0.8,0.8v0.1h2.1l-0.1,0.8h-2.9V39.4z"/>
			</g>
			<path class="st1" d="M105.9,16.3C105.9,16.3,106,16.4,105.9,16.3c0.4,0,0.5,0.3,0.5,0.5l-4.5,17c0,0.3-0.3,0.5-0.6,0.4     c-0.3,0-0.4-0.3-0.4-0.6l4.5-17C105.5,16.5,105.7,16.4,105.9,16.3z"/>
		</g>
		<g>
			<path class="st1" d="M205.8,119.7c0.2,0,0.4,0.1,0.4,0.2l9.3,13.2c0.1,0.2,0.1,0.5-0.1,0.7c-0.2,0.1-0.5,0.1-0.7-0.1l-9.3-13.2     c-0.1-0.2-0.1-0.5,0.1-0.7C205.6,119.7,205.6,119.7,205.8,119.7z"/>
			<path class="st1" d="M219.4,139.8h-6.2c-1.6,0-2.8-1.3-2.8-2.8v-4.2c0-1.6,1.3-2.8,2.8-2.8h6.2c1.6,0,2.8,1.3,2.8,2.8v4.2     C222.2,138.6,221,139.8,219.4,139.8z"/>
			<g>
				<path class="st2" d="M214.2,132.2h1v0.9h-1V132.2z M214.3,133.5h0.9v3.5h-0.9V133.5z"/>
				<path class="st2" d="M215.8,135.6h1c0,0.4,0.2,0.7,0.6,0.7s0.6-0.2,0.6-0.6c0-0.4-0.2-0.6-0.7-0.6h-0.4v-0.7h0.3      c0.4,0,0.6-0.2,0.6-0.6c0-0.3-0.2-0.5-0.5-0.5c-0.4,0-0.6,0.2-0.6,0.7l0,0h-1l0,0c0-1,0.5-1.5,1.6-1.5c0.9,0,1.5,0.5,1.5,1.2      c0,0.5-0.2,0.8-0.5,0.9c0.5,0.2,0.7,0.5,0.7,1c0,0.8-0.6,1.4-1.6,1.4C216.3,137.1,215.8,136.5,215.8,135.6z"/>
			</g>
		</g>
	</g>
	<g>
		<path class="st0" d="M88.7,100v-0.6h1.1v-3.1h0l-1,0.3l-0.1-0.6l1.3-0.4h0.7v3.9h1v0.6H88.7z"/>
		<path class="st0" d="M70.6,88.7v-0.8c0-0.9,0.3-1.3,1-1.6l0.5-0.1c0.4-0.1,0.6-0.3,0.6-0.8v0c0-0.5-0.3-0.7-0.8-0.7    c-0.4,0-0.8,0.1-1.1,0.3l-0.2-0.6c0.3-0.2,0.8-0.3,1.4-0.3c0.9,0,1.5,0.4,1.5,1.3v0.1c0,0.8-0.3,1.1-0.9,1.3l-0.5,0.2    c-0.5,0.1-0.7,0.4-0.7,0.8v0.3h2.1v0.6H70.6z"/>
		<path class="st0" d="M37.8,95.3l0.1-0.6c0.3,0.1,0.7,0.2,1.2,0.2c0.6,0,0.8-0.2,0.8-0.7v-0.1c0-0.5-0.3-0.7-0.9-0.7h-0.5v-0.6h0.4    c0.6,0,0.9-0.2,0.9-0.7v0c0-0.4-0.3-0.6-0.7-0.6c-0.4,0-0.8,0.1-1.1,0.3l-0.2-0.6c0.3-0.2,0.8-0.3,1.4-0.3c0.8,0,1.4,0.3,1.4,1.1    V92c0,0.5-0.2,0.9-0.7,1v0c0.5,0.1,0.8,0.4,0.8,1.1v0.1c0,0.9-0.5,1.3-1.6,1.3C38.6,95.5,38.2,95.4,37.8,95.3z"/>
		<path class="st0" d="M2.2,51.7v-0.9H0v-0.5l1.6-3.1h0.8l-1.5,2.9h1.3v-1.3H3v1.3h0.5v0.7H3v0.9H2.2z"/>
		<path class="st0" d="M29,42.8L29,42.8c0,1.1-0.6,1.5-1.6,1.5c-0.6,0-1.1-0.1-1.5-0.4l0.2-0.6c0.4,0.2,0.8,0.3,1.2,0.3    c0.6,0,0.8-0.2,0.8-0.8v-0.1c0-0.6-0.3-0.8-0.9-0.8c-0.3,0-0.7,0-1,0.1l-0.2-0.2l0.2-2.2h2.4v0.6h-1.7l-0.1,1.1c0.2,0,0.4,0,0.5,0    C28.5,41.4,29,41.8,29,42.8z"/>
		<path class="st0" d="M41.4,60.7L41.4,60.7c0,1.1-0.5,1.5-1.5,1.5c-1.2,0-1.6-0.6-1.6-2.1v-0.3c0-1.8,0.7-2.3,1.8-2.3    c0.5,0,0.8,0.1,1.1,0.2L41,58.4c-0.2-0.1-0.6-0.2-0.9-0.2c-0.7,0-1,0.3-1,1.2c0.3,0,0.6-0.1,0.9-0.1    C40.9,59.3,41.4,59.8,41.4,60.7z M40.6,60.7c0-0.6-0.2-0.8-0.7-0.8c-0.3,0-0.6,0-0.8,0.1v0.1c0,1.1,0.1,1.5,0.8,1.5    C40.4,61.6,40.6,61.4,40.6,60.7L40.6,60.7z"/>
		<path class="st0" d="M91.8,58.3l1.9-3.9h-2.2v-0.6h3.1v0.5l-1.9,4H91.8z"/>
		<path class="st0" d="M168.4,46.4L168.4,46.4c0,0.9-0.5,1.3-1.6,1.3c-1.1,0-1.6-0.4-1.6-1.3v0c0-0.5,0.2-0.9,0.7-1.1    c-0.4-0.2-0.5-0.5-0.5-1v0c0-0.8,0.5-1.2,1.5-1.2c0.9,0,1.5,0.4,1.5,1.2v0.1c0,0.5-0.2,0.8-0.5,1    C168.2,45.5,168.4,45.8,168.4,46.4z M167.6,46.4c0-0.5-0.2-0.7-0.8-0.7h-0.1c-0.5,0-0.8,0.2-0.8,0.7v0c0,0.5,0.2,0.7,0.8,0.7    C167.4,47.1,167.6,46.9,167.6,46.4L167.6,46.4z M166.1,44.4c0,0.4,0.2,0.7,0.7,0.7h0.1c0.5,0,0.7-0.2,0.7-0.7v0    c0-0.4-0.2-0.6-0.7-0.6C166.3,43.7,166.1,43.9,166.1,44.4L166.1,44.4z"/>
		<path class="st0" d="M90.1,24.8v0.6c0,1.5-0.4,2.2-1.7,2.2c-0.5,0-0.9-0.1-1.2-0.2l0.1-0.6c0.3,0.1,0.7,0.2,1,0.2    c0.6,0,0.9-0.3,0.9-1.1c-0.2,0-0.5,0.1-0.8,0.1c-1.1,0-1.5-0.4-1.5-1.4v-0.1c0-1,0.6-1.5,1.6-1.5C89.6,22.9,90.1,23.4,90.1,24.8z     M87.8,24.5c0,0.6,0.2,0.8,0.8,0.8c0.3,0,0.6,0,0.8-0.1V25c0-1-0.1-1.4-0.8-1.4C88,23.6,87.8,23.8,87.8,24.5L87.8,24.5z"/>
		<g>
			<path class="st0" d="M72.2,6.2V5.6h1.1V2.4h0l-1,0.3l-0.1-0.6l1.3-0.4h0.7v3.9h1v0.6H72.2z"/>
			<path class="st0" d="M76.1,5.9c-0.3-0.3-0.5-0.8-0.5-1.9V3.8c0-1,0.1-1.5,0.4-1.8c0.3-0.3,0.6-0.4,1.2-0.4c0.6,0,1,0.1,1.2,0.4     c0.3,0.3,0.4,0.8,0.4,1.8V4c0,1.1-0.1,1.5-0.4,1.8c-0.3,0.3-0.7,0.4-1.2,0.4C76.8,6.3,76.4,6.2,76.1,5.9z M77.9,5.4     c0.2-0.2,0.2-0.6,0.2-1.4V3.9c0-0.8,0-1.2-0.2-1.4c-0.1-0.2-0.3-0.2-0.6-0.2c-0.3,0-0.5,0.1-0.6,0.2c-0.2,0.2-0.2,0.6-0.2,1.4V4     c0,0.8,0,1.2,0.2,1.4c0.1,0.1,0.3,0.2,0.6,0.2C77.6,5.6,77.8,5.6,77.9,5.4z"/>
		</g>
		<g>
			<path class="st0" d="M200.6,37.7V37h1.1v-3.1h0l-1,0.3l-0.1-0.6l1.3-0.4h0.7V37h1v0.6H200.6z"/>
			<path class="st0" d="M204.3,37.7V37h1.1v-3.1h0l-1,0.3l-0.1-0.6l1.3-0.4h0.7V37h1v0.6H204.3z"/>
		</g>
		<g>
			<path class="st0" d="M229,79.2v-0.6h1.1v-3.1h0l-1,0.3l-0.1-0.6l1.3-0.4h0.7v3.9h1v0.6H229z"/>
			<path class="st0" d="M232.7,79.2v-0.8c0-0.9,0.3-1.3,1-1.6l0.5-0.1c0.4-0.1,0.6-0.3,0.6-0.8v0c0-0.5-0.3-0.7-0.8-0.7     c-0.4,0-0.8,0.1-1.1,0.3l-0.2-0.6c0.3-0.2,0.8-0.3,1.4-0.3c0.9,0,1.5,0.4,1.5,1.3v0.1c0,0.8-0.3,1.1-0.9,1.3l-0.5,0.2     c-0.5,0.1-0.7,0.4-0.7,0.8v0.3h2.1v0.6H232.7z"/>
		</g>
		<g>
			<path class="st0" d="M229.5,122v-0.6h1.1v-3.1h0l-1,0.3l-0.1-0.6l1.3-0.4h0.7v3.9h1v0.6H229.5z"/>
			<path class="st0" d="M233,121.8l0.1-0.6c0.3,0.1,0.7,0.2,1.2,0.2c0.6,0,0.8-0.2,0.8-0.7v-0.1c0-0.5-0.3-0.7-0.9-0.7h-0.5v-0.6     h0.4c0.6,0,0.9-0.2,0.9-0.7v0c0-0.4-0.3-0.6-0.7-0.6c-0.4,0-0.8,0.1-1.1,0.3l-0.2-0.6c0.3-0.2,0.8-0.3,1.4-0.3     c0.8,0,1.4,0.3,1.4,1.1v0.1c0,0.5-0.2,0.9-0.7,1v0c0.5,0.1,0.8,0.4,0.8,1.1v0.1c0,0.9-0.5,1.3-1.6,1.3     C233.8,122,233.3,121.9,233,121.8z"/>
		</g>
		<g>
			<path class="st0" d="M187.5,136.1v-0.6h1.1v-3.1h0l-1,0.3l-0.1-0.6l1.3-0.4h0.7v3.9h1v0.6H187.5z"/>
			<path class="st0" d="M193,136.1v-0.9h-2.2v-0.5l1.6-3.1h0.8l-1.5,2.9h1.3v-1.3h0.8v1.3h0.5v0.7h-0.5v0.9H193z"/>
		</g>
		<g>
			<path class="st0" d="M200.2,97.7v-0.6h1.1V94h0l-1,0.3l-0.1-0.6l1.3-0.4h0.7v3.9h1v0.6H200.2z"/>
			<path class="st0" d="M206.8,96.3L206.8,96.3c0,1.1-0.6,1.5-1.6,1.5c-0.6,0-1.1-0.1-1.5-0.4l0.2-0.6c0.4,0.2,0.8,0.3,1.2,0.3     c0.6,0,0.8-0.2,0.8-0.8v-0.1c0-0.6-0.3-0.8-0.9-0.8c-0.3,0-0.7,0-1,0.1l-0.2-0.2l0.2-2.2h2.4v0.6h-1.7l-0.1,1.1     c0.2,0,0.4,0,0.5,0C206.3,94.9,206.8,95.3,206.8,96.3z"/>
		</g>
		<g>
			<path class="st0" d="M182.2,64.5v-0.6h1.1v-3.1h0l-1,0.3l-0.1-0.6l1.3-0.4h0.7v3.9h1v0.6H182.2z"/>
			<path class="st0" d="M188.8,63L188.8,63c0,1.1-0.5,1.5-1.5,1.5c-1.2,0-1.6-0.6-1.6-2.1v-0.3c0-1.8,0.7-2.3,1.8-2.3     c0.5,0,0.8,0.1,1.1,0.2l-0.1,0.6c-0.2-0.1-0.6-0.2-0.9-0.2c-0.7,0-1,0.3-1,1.2c0.3,0,0.6-0.1,0.9-0.1     C188.3,61.7,188.8,62.1,188.8,63z M188,63.1c0-0.6-0.2-0.8-0.7-0.8c-0.3,0-0.6,0-0.8,0.1v0.1c0,1.1,0.1,1.5,0.8,1.5     C187.8,63.9,188,63.7,188,63.1L188,63.1z"/>
		</g>
	</g>
</g>
</svg>