<?xml version="1.0" encoding="UTF-8"?>
<svg id="uuid-ddb6f306-fae2-4f37-95e2-1ecf95ec894c" data-name="Capa 1" xmlns="http://www.w3.org/2000/svg" viewBox="0 0 210 210">
  <defs>
    <style>
      .uuid-077602eb-9975-4ebb-b871-ebd923027f13 {
        fill: #323232;
      }

      .uuid-dee24e84-5467-4897-8204-fcd8f8da706e {
        fill: #444;
      }

      .uuid-5b1e00af-efc6-4a6b-81ae-8fb901840a06 {
        fill: #e6e6e6;
      }

      .uuid-b6b5e9e4-c143-4538-8d9a-3ac9f6e5468b {
        fill: #f6f6f6;
      }

      .uuid-784a4401-2b92-487a-bbbd-4fd9e43dcca7 {
        fill: #606060;
      }

      .uuid-3f1816ca-a8b3-4622-af88-0e61716360c6 {
        fill: #a0a0a0;
      }

      .uuid-6c36bc0e-128b-48a5-936b-f7b38630f3c9 {
        fill: #c6c6c6;
      }

      .uuid-546acd13-1851-4e28-8d17-5a7d543c9b7f {
        fill: #fafafa;
      }

      .uuid-10941e1f-e045-45c9-9092-8f62b588fa61 {
        fill: red;
      }

      .uuid-23372bb0-a453-40f2-8590-c8859b1ef259 {
        fill: #ededed;
      }
    </style>
  </defs>
  <path class="uuid-784a4401-2b92-487a-bbbd-4fd9e43dcca7" d="M144.98,103.51c-1.58,0-3.23-.04-4.9-.08-.45-.01-.89-.02-1.34-.03l.03-1.43c.45.01.89.02,1.34.03,6.14.15,12.49.31,14.7-1.79,1.29-1.23,1.77-2.69,1.48-4.48-.32-1.96-2.03-3.65-3.41-4.5-2.07-1.29-9.13-2.42-11.68-2.75l.18-1.42c.39.05,9.49,1.23,12.25,2.95,1.63,1.01,3.67,3.06,4.06,5.49.37,2.26-.27,4.19-1.9,5.75-1.98,1.89-6.06,2.27-10.82,2.27Z"/>
  <path class="uuid-3f1816ca-a8b3-4622-af88-0e61716360c6" d="M81.21,199.99c-2.71,0-6.57-1.2-9.49-6.95-2.52-4.96-6.49-13.68-10.32-22.12-3.9-8.57-7.58-16.67-9.56-20.44-2.16-4.1-6.08-14.79,3.98-25.59,11.18-11.98,18.46-19.18,18.67-19.37l.16-.14c2.74-2.38,3.19-2.6,10.14-2.6,13.04,0,57.48-1.21,57.93-1.22h.02s.02,0,.02,0h0c.25,0,5.8-.06,6.41-4.86.76-6.02-5.7-7.29-5.97-7.35l-.09-.02L21.77,55.98c-4.05-1.12-5.76-3.25-6.49-4.84-1.72-3.77-.84-7.06,3.25-12.13l14.35-18.79c.34-.42.84-1.07,1.41-1.82,2.04-2.67,4.83-6.32,6.53-7.65,2.08-1.63,5.15-1.81,7.65-.45,2.66,1.45,4,4.22,3.69,7.62-1.17,12.91.18,16.75,3.66,20.45,2.51,2.68,13.66,10.18,20.32,14.66,1.16.78,2.22,1.49,3.11,2.09,3.47,2.35,7.56,3.63,12.87,4.03,4.83.36,10.17-1.61,14.27-5.28,3.32-2.96,15.28-14.33,25.83-24.36,6.87-6.53,13.35-12.69,16.01-15.16,1.66-1.54,4.97-3.68,6.94-4.49,6.33-2.59,19-2.08,26.09,10.35l.02.04c2.64,5.16,2.61,10.18,2.57,18.49,0,1.12-.01,2.3-.01,3.56,0,.89.07,8.05.17,17.97.22,21.39.58,57.19.58,66.9,0,18.72.45,31.6.45,31.72v.04c0,2.38-1.37,7.06-6.54,7.72-.3.04-.59.06-.88.06-4.92,0-7.44-5.49-8.69-8.2-1.27-2.76-13.87-29.27-14.75-30.84-1.97-3.54-6.08-10.89-18.85-10.89-4.82,0-10.88.03-16.75.06-5.69.03-11.57.06-16.09.06-7.4,0-11.4,1.47-15.27,5.61-1.33,1.43-5.63,6.8-4.91,16.04.22,2.75,1.67,6.88,2.9,9,4.6,7.99,5.53,9.32,7.2,11.74l.1.15c2.05,2.96,10.45,16.45,12.72,20.14,1.23,2,1.77,4.34,1.5,6.58-.52,4.39-2.87,7.36-6.81,8.59-8.62,2.69-14.3,4.41-15.53,4.69-.38.15-1.58.57-3.19.57ZM75.85,107.05c-.49.46-7.76,7.68-18.53,19.23-3.66,3.93-5.68,8.2-6,12.71-.31,4.44,1.09,8.18,2.33,10.53,2.01,3.82,5.7,11.95,9.61,20.55,3.82,8.42,7.78,17.12,10.28,22.04,4.08,8.03,9.88,5.51,10.12,5.4l.23-.1h.08c.38-.08,2.68-.67,15.35-4.63,3.15-.98,4.96-3.3,5.39-6.87.21-1.78-.22-3.66-1.21-5.27-2.5-4.06-10.73-17.26-12.66-20.05l-.1-.15c-1.71-2.46-2.65-3.82-7.29-11.88-1.33-2.31-2.92-6.74-3.17-9.86-.79-10.07,3.97-16.01,5.45-17.59,4.27-4.56,8.81-6.26,16.77-6.26,4.52,0,10.4-.03,16.08-.06,5.87-.03,11.94-.06,16.76-.06,5.77,0,10.57,1.41,14.26,4.18,3.1,2.33,4.96,5.23,6.38,7.76.96,1.72,13.66,28.46,14.82,30.99,3.03,6.58,5.37,7.24,7.46,6.97,4.58-.58,4.75-5.31,4.76-5.68-.02-.63-.45-13.39-.45-31.77,0-9.7-.36-45.49-.58-66.88-.1-9.92-.17-17.09-.17-17.99,0-1.26,0-2.45.01-3.57.04-8.27.06-12.83-2.34-17.53-2.06-3.6-5.88-8.24-12.43-9.92-4.51-1.16-8.69-.52-11.1.47-1.76.72-4.84,2.72-6.33,4.1-2.65,2.46-9.13,8.62-15.99,15.14-10.56,10.04-22.53,21.42-25.88,24.4-4.51,4.02-10.41,6.19-15.78,5.79-5.68-.42-10.09-1.81-13.87-4.37-.89-.6-1.94-1.31-3.1-2.09-7.17-4.82-18-12.11-20.67-14.96-4.39-4.68-5.33-9.62-4.2-22.04.14-1.5-.03-4.22-2.63-5.64-1.76-.96-3.98-.85-5.41.27-1.49,1.17-4.42,5-6.16,7.28-.58.76-1.08,1.42-1.44,1.86l-14.35,18.79c-4.06,5.03-4.18,7.4-2.99,10,.78,1.72,2.57,3,5.17,3.72l121.3,33.34c.34.07,2.25.49,4.08,1.74,1.89,1.29,4.03,3.7,3.5,7.87-.67,5.26-5.76,6.65-8.41,6.65h-.02c-1.05.03-44.99,1.22-57.97,1.22-6.38,0-6.47.08-8.8,2.1l-.15.13Z"/>
  <g>
    <circle class="uuid-dee24e84-5467-4897-8204-fcd8f8da706e" cx="9.51" cy="51.88" r="3.51"/>
    <path class="uuid-6c36bc0e-128b-48a5-936b-f7b38630f3c9" d="M8.4,52.94h.93v-2.08l-.84.19v-.6l1.46-.33v2.81h.86v.6h-2.41v-.6Z"/>
  </g>
  <g>
    <circle class="uuid-dee24e84-5467-4897-8204-fcd8f8da706e" cx="47.28" cy="4.01" r="3.51"/>
    <path class="uuid-6c36bc0e-128b-48a5-936b-f7b38630f3c9" d="M47.83,3.25c0-.24-.18-.42-.49-.42s-.55.18-.73.48l-.51-.32c.25-.48.68-.75,1.23-.75.67,0,1.1.4,1.1.98,0,1.02-1.1,1.11-1.49,1.86h1.56v.59h-2.36v-.47c.52-1.17,1.68-1.31,1.68-1.95Z"/>
  </g>
  <g>
    <circle class="uuid-dee24e84-5467-4897-8204-fcd8f8da706e" cx="59.15" cy="33.63" r="3.51"/>
    <path class="uuid-6c36bc0e-128b-48a5-936b-f7b38630f3c9" d="M57.92,34.66l.47-.28c.17.29.39.44.75.44s.64-.2.64-.52c0-.3-.24-.52-.57-.52h-.4v-.51h.4c.3,0,.47-.17.47-.43s-.2-.43-.53-.43c-.3,0-.53.13-.7.42l-.47-.28c.26-.44.67-.68,1.22-.68.64,0,1.09.4,1.09.94,0,.35-.19.61-.42.72.31.16.52.48.52.82,0,.58-.48,1.02-1.24,1.02-.57,0-.99-.26-1.23-.71Z"/>
  </g>
  <g>
    <circle class="uuid-dee24e84-5467-4897-8204-fcd8f8da706e" cx="91.56" cy="53.49" r="3.51"/>
    <path class="uuid-6c36bc0e-128b-48a5-936b-f7b38630f3c9" d="M90.31,53.95l.93-2.15h.64l-.9,2.08h.85v-.78h.62v.78h.49v.58h-.49v.7h-.62v-.7h-1.52v-.5Z"/>
  </g>
  <g>
    <circle class="uuid-dee24e84-5467-4897-8204-fcd8f8da706e" cx="170.81" cy="4.41" r="3.51"/>
    <path class="uuid-6c36bc0e-128b-48a5-936b-f7b38630f3c9" d="M169.62,5.45l.52-.32c.15.28.37.43.7.43.38,0,.64-.23.64-.59s-.23-.6-.65-.6c-.25,0-.45.1-.61.27l-.41-.26.33-1.65h1.79v.59h-1.32l-.12.63c.13-.06.27-.08.43-.08.74,0,1.18.48,1.18,1.13s-.47,1.16-1.28,1.16c-.53,0-.96-.25-1.19-.7Z"/>
  </g>
  <g>
    <circle class="uuid-dee24e84-5467-4897-8204-fcd8f8da706e" cx="180.53" cy="171.96" r="3.51"/>
    <path class="uuid-6c36bc0e-128b-48a5-936b-f7b38630f3c9" d="M179.33,172.49c0-.27.1-.54.28-.77l1.11-1.45h.76l-.82,1.05h.04c.62,0,1.16.49,1.16,1.19,0,.66-.53,1.19-1.25,1.19s-1.27-.54-1.27-1.21ZM181.23,172.48c0-.35-.26-.63-.63-.63s-.65.28-.65.63.26.62.64.62.64-.27.64-.62Z"/>
  </g>
  <g>
    <circle class="uuid-dee24e84-5467-4897-8204-fcd8f8da706e" cx="142.26" cy="123.49" r="3.51"/>
    <path class="uuid-6c36bc0e-128b-48a5-936b-f7b38630f3c9" d="M142.79,122.39h-1.71v-.6h2.4v.5l-1.38,2.85h-.66l1.35-2.76Z"/>
  </g>
  <g>
    <circle class="uuid-dee24e84-5467-4897-8204-fcd8f8da706e" cx="89.44" cy="129.17" r="3.51"/>
    <path class="uuid-6c36bc0e-128b-48a5-936b-f7b38630f3c9" d="M88.31,129.88c0-.34.19-.64.49-.82-.2-.09-.39-.38-.39-.72,0-.54.45-.92,1.09-.92s1.09.38,1.09.92c0,.35-.18.61-.39.72.29.16.49.48.49.82,0,.58-.48,1.02-1.19,1.02s-1.19-.45-1.19-1.02ZM90.08,129.83c0-.3-.24-.53-.58-.53s-.58.23-.58.53c0,.32.24.53.58.53s.58-.21.58-.53ZM89.99,128.37c0-.25-.18-.42-.49-.42s-.49.17-.49.42.18.43.49.43.49-.17.49-.43Z"/>
  </g>
  <g>
    <circle class="uuid-dee24e84-5467-4897-8204-fcd8f8da706e" cx="111.37" cy="191.15" r="3.51"/>
    <path class="uuid-6c36bc0e-128b-48a5-936b-f7b38630f3c9" d="M112.69,190.59c0,.27-.1.53-.28.77l-1.1,1.45h-.76l.82-1.05h-.04c-.62,0-1.16-.49-1.16-1.19,0-.66.53-1.19,1.26-1.19s1.27.54,1.27,1.21ZM110.79,190.6c0,.35.26.63.63.63s.65-.28.65-.63-.26-.62-.64-.62-.64.28-.64.62Z"/>
  </g>
  <g>
    <circle class="uuid-dee24e84-5467-4897-8204-fcd8f8da706e" cx="75.63" cy="204.6" r="3.51"/>
    <g>
      <path class="uuid-6c36bc0e-128b-48a5-936b-f7b38630f3c9" d="M73.15,205.66h.93v-2.08l-.84.19v-.6l1.46-.33v2.81h.86v.6h-2.41v-.6Z"/>
      <path class="uuid-6c36bc0e-128b-48a5-936b-f7b38630f3c9" d="M75.85,205.09v-1.04c0-.74.54-1.23,1.23-1.23s1.23.49,1.23,1.23v1.04c0,.74-.54,1.23-1.23,1.23s-1.23-.49-1.23-1.23ZM77.69,205.07v-1c0-.4-.23-.66-.61-.66s-.61.25-.61.66v1c0,.4.23.65.61.65s.61-.25.61-.65Z"/>
    </g>
  </g>
  <g>
    <circle class="uuid-dee24e84-5467-4897-8204-fcd8f8da706e" cx="43.98" cy="136.18" r="3.51"/>
    <g>
      <path class="uuid-6c36bc0e-128b-48a5-936b-f7b38630f3c9" d="M41.49,137.24h.93v-2.08l-.84.19v-.6l1.46-.33v2.81h.86v.6h-2.41v-.6Z"/>
      <path class="uuid-6c36bc0e-128b-48a5-936b-f7b38630f3c9" d="M44.26,137.24h.93v-2.08l-.84.19v-.6l1.46-.33v2.81h.86v.6h-2.41v-.6Z"/>
    </g>
  </g>
  <g>
    <circle class="uuid-dee24e84-5467-4897-8204-fcd8f8da706e" cx="75.95" cy="97.95" r="3.51"/>
    <g>
      <path class="uuid-6c36bc0e-128b-48a5-936b-f7b38630f3c9" d="M73.46,99.01h.93v-2.08l-.84.19v-.6l1.46-.33v2.81h.86v.6h-2.41v-.6Z"/>
      <path class="uuid-6c36bc0e-128b-48a5-936b-f7b38630f3c9" d="M77.89,97.2c0-.24-.18-.42-.49-.42s-.55.18-.73.48l-.51-.32c.25-.48.68-.75,1.23-.75.67,0,1.1.4,1.1.98,0,1.02-1.1,1.11-1.49,1.86h1.56v.59h-2.36v-.47c.52-1.17,1.68-1.31,1.68-1.95Z"/>
    </g>
  </g>
  <g>
    <circle class="uuid-dee24e84-5467-4897-8204-fcd8f8da706e" cx="143.76" cy="95.61" r="3.51"/>
    <g>
      <path class="uuid-6c36bc0e-128b-48a5-936b-f7b38630f3c9" d="M141.27,96.68h.93v-2.08l-.84.19v-.6l1.46-.33v2.81h.86v.6h-2.41v-.6Z"/>
      <path class="uuid-6c36bc0e-128b-48a5-936b-f7b38630f3c9" d="M143.92,96.64l.47-.28c.17.29.39.44.75.44s.64-.2.64-.52c0-.3-.24-.52-.57-.52h-.4v-.51h.4c.3,0,.47-.17.47-.43s-.2-.43-.53-.43c-.3,0-.53.13-.7.42l-.47-.28c.26-.44.67-.68,1.22-.68.64,0,1.09.4,1.09.94,0,.35-.19.61-.42.72.31.16.52.48.52.82,0,.58-.48,1.02-1.24,1.02-.57,0-.99-.26-1.23-.71Z"/>
    </g>
  </g>
  <g>
    <path class="uuid-b6b5e9e4-c143-4538-8d9a-3ac9f6e5468b" d="M208.32,100.22h-8.62l-.03.03v7.38h8.65v-7.41Z"/>
    <path class="uuid-077602eb-9975-4ebb-b871-ebd923027f13" d="M202.03,105.26h2.69c.14,0,.25-.03.33-.09.08-.06.12-.15.12-.27,0-.11-.03-.19-.1-.24-.07-.06-.17-.11-.31-.15l-1.69-.45c-.39-.09-.67-.25-.86-.47-.18-.22-.28-.52-.28-.88,0-.26.06-.5.19-.71.13-.21.31-.37.54-.49.23-.12.51-.18.83-.18h2.58v1.02h-2.58c-.14,0-.26.03-.33.09-.08.06-.12.15-.12.27s.03.2.1.25c.06.06.17.11.31.15l1.68.44c.39.09.68.25.86.48s.28.52.28.88c0,.27-.06.51-.19.71-.13.21-.31.37-.54.49-.23.12-.51.18-.83.18h-2.69v-1.02Z"/>
  </g>
  <g>
    <g>
      <line class="uuid-23372bb0-a453-40f2-8590-c8859b1ef259" x1="69.75" y1="73.95" x2="71.82" y2="65.44"/>
      <rect class="uuid-5b1e00af-efc6-4a6b-81ae-8fb901840a06" x="66.41" y="69.33" width="8.76" height=".73" transform="translate(-13.65 122.03) rotate(-76.35)"/>
    </g>
    <g>
      <path class="uuid-10941e1f-e045-45c9-9092-8f62b588fa61" d="M73.72,72.51h-10.98l-.03.03v8.7h11.02v-8.74Z"/>
      <g>
        <path class="uuid-23372bb0-a453-40f2-8590-c8859b1ef259" d="M65.95,75.28c.09-.19.23-.33.42-.42.19-.09.42-.14.71-.14h1.98v.83h-1.92c-.11,0-.2.01-.26.04-.06.03-.11.08-.14.14-.03.06-.04.15-.04.26v.32h2.26v.83h-2.26v1.58h-.89v-2.73c0-.29.05-.52.14-.71Z"/>
        <path class="uuid-23372bb0-a453-40f2-8590-c8859b1ef259" d="M72.61,78.73h-1.67c-.29,0-.53-.05-.71-.14-.19-.09-.33-.23-.42-.42s-.14-.43-.14-.71v-2.73h.89v2.73c0,.11.01.2.04.26.03.07.07.11.14.14.07.03.15.04.26.04h1.61v.83Z"/>
      </g>
      <g>
        <g>
          <rect class="uuid-546acd13-1851-4e28-8d17-5a7d543c9b7f" x="63.58" y="75.43" width=".88" height="5.83"/>
          <rect x="63.58" y="76.4" width=".88" height=".97"/>
          <rect x="63.58" y="78.34" width=".88" height=".97"/>
          <rect x="63.58" y="80.28" width=".88" height=".97"/>
          <rect class="uuid-546acd13-1851-4e28-8d17-5a7d543c9b7f" x="62.7" y="75.43" width=".88" height="5.83"/>
          <rect x="62.7" y="75.43" width=".88" height=".97"/>
          <rect x="62.7" y="77.37" width=".88" height=".97"/>
          <rect x="62.7" y="79.31" width=".88" height=".97"/>
        </g>
        <g>
          <rect class="uuid-546acd13-1851-4e28-8d17-5a7d543c9b7f" x="63.58" y="72.51" width=".88" height="2.91"/>
          <rect x="63.58" y="72.51" width=".88" height=".97"/>
          <rect x="63.58" y="74.46" width=".88" height=".97"/>
          <rect class="uuid-546acd13-1851-4e28-8d17-5a7d543c9b7f" x="62.7" y="72.51" width=".88" height="2.91"/>
          <rect x="62.7" y="73.49" width=".88" height=".97"/>
        </g>
      </g>
    </g>
  </g>
  <g>
    <polygon class="uuid-5b1e00af-efc6-4a6b-81ae-8fb901840a06" points="116.8 50.11 106.79 40.7 107.35 40.17 117.37 49.58 116.8 50.11"/>
    <path class="uuid-10941e1f-e045-45c9-9092-8f62b588fa61" d="M115.78,34.81h-10.14l-.03.03v8.76h10.17v-8.79Z"/>
    <g>
      <path class="uuid-23372bb0-a453-40f2-8590-c8859b1ef259" d="M107.31,40.33h1.17v-2.35h-1.17v-.83h3.24v.83h-1.18v2.35h1.18v.83h-3.24v-.83Z"/>
      <path class="uuid-23372bb0-a453-40f2-8590-c8859b1ef259" d="M111.17,40.33h1.49v-2.1c0-.07-.02-.13-.05-.17-.03-.04-.08-.06-.16-.06-.04,0-.08,0-.13.02-.05.01-.11.04-.17.06l-.89.29v-.83l.81-.29c.12-.04.23-.08.34-.1s.22-.04.32-.04c.17,0,.31.04.43.11.12.07.22.18.28.32s.09.29.09.47v2.33h1.32v.83h-3.7v-.83Z"/>
    </g>
  </g>
  <g>
    <rect class="uuid-5b1e00af-efc6-4a6b-81ae-8fb901840a06" x="184.69" y="97.63" width=".73" height="12.21" transform="translate(77.58 286.64) rotate(-88.83)"/>
    <path class="uuid-10941e1f-e045-45c9-9092-8f62b588fa61" d="M198.38,99.97h-10.14l-.03.03v7.93h10.17v-7.96Z"/>
    <g>
      <path class="uuid-23372bb0-a453-40f2-8590-c8859b1ef259" d="M189.51,105.02h1.17v-2.35h-1.17v-.83h3.24v.83h-1.18v2.35h1.18v.83h-3.24v-.83Z"/>
      <path class="uuid-23372bb0-a453-40f2-8590-c8859b1ef259" d="M193.86,105.72c-.18-.09-.32-.21-.42-.36-.09-.16-.14-.34-.14-.55,0-.3.09-.54.27-.73.18-.19.48-.33.9-.41l1.27-.27c.12-.02.21-.05.28-.08.07-.03.11-.07.14-.12.03-.04.05-.11.05-.18,0-.11-.04-.2-.13-.25s-.22-.08-.41-.08h-.92c-.17,0-.3.04-.39.13-.09.09-.13.21-.13.37v.15h-.89v-.24c0-.26.06-.48.17-.67.11-.18.27-.33.49-.43.21-.1.47-.15.78-.15h.88c.47,0,.83.1,1.08.3s.37.49.37.86c0,.22-.04.41-.11.56-.07.15-.18.27-.33.37-.15.09-.34.16-.58.21l-1.5.3c-.13.03-.23.07-.29.12-.07.05-.1.12-.1.2s.03.15.09.2c.06.04.15.07.27.07h2.53v.83h-2.57c-.25,0-.47-.04-.65-.13Z"/>
    </g>
  </g>
  <g>
    <rect class="uuid-5b1e00af-efc6-4a6b-81ae-8fb901840a06" x="90.25" y="193.29" width=".73" height="12.82" transform="translate(-61.55 41.78) rotate(-19.53)"/>
    <g>
      <path class="uuid-10941e1f-e045-45c9-9092-8f62b588fa61" d="M97.03,200.67h-10.94l-.03.03v8.96h10.97v-9Z"/>
      <g>
        <path class="uuid-23372bb0-a453-40f2-8590-c8859b1ef259" d="M87.75,206.19h1.17v-2.35h-1.17v-.83h3.24v.83h-1.18v2.35h1.18v.83h-3.24v-.83Z"/>
        <path class="uuid-23372bb0-a453-40f2-8590-c8859b1ef259" d="M92.18,206.86c-.21-.1-.38-.25-.49-.43-.11-.19-.17-.41-.17-.67v-.51h.9v.43c0,.16.05.28.14.37.09.09.22.13.38.13h1.03c.15,0,.26-.03.34-.1.08-.06.12-.16.12-.29,0-.12-.04-.21-.12-.28-.08-.06-.19-.09-.34-.09h-1.11v-.83h1.07c.14,0,.26-.03.34-.1.08-.06.12-.16.12-.29,0-.12-.04-.21-.12-.28-.08-.06-.19-.09-.34-.09h-1c-.16,0-.29.04-.38.13-.09.09-.14.21-.14.37v.26h-.89v-.34c0-.26.06-.48.17-.67s.27-.33.49-.43c.21-.1.47-.15.77-.15h1.01c.27,0,.5.04.7.13s.35.21.46.38c.11.17.16.36.16.59,0,.2-.04.38-.14.53-.09.15-.23.27-.42.37.21.1.37.22.46.37.09.14.14.32.14.54s-.05.42-.16.59c-.11.17-.27.29-.47.38-.2.09-.44.13-.71.13h-1.03c-.3,0-.56-.05-.77-.15Z"/>
      </g>
    </g>
  </g>
</svg>